<?xml version="1.0" encoding="iso-8859-1"?>
<!-- Uploaded to: SVG Repo, www.svgrepo.com, Generator: SVG Repo Mixer Tools -->
<!DOCTYPE svg PUBLIC "-//W3C//DTD SVG 1.1//EN" "http://www.w3.org/Graphics/SVG/1.1/DTD/svg11.dtd">
<svg fill="gold" height="800px" width="800px" version="1.1" id="Capa_1" xmlns="http://www.w3.org/2000/svg" xmlns:xlink="http://www.w3.org/1999/xlink"
	 viewBox="0 0 199.865 199.865" xml:space="preserve">
<path d="M67.668,7.731c-1.002-1.537-1.083-3.5-0.208-5.113C68.333,1.005,70.021,0,71.856,0h56.153c1.835,0,3.522,1.005,4.396,2.618
	c0.874,1.614,0.794,3.576-0.208,5.113L125.3,18.308c-2.883,4.721-6.018,12.657-6.891,19.467h-7.943l2.071-4.472
	c1.161-2.506,0.07-5.478-2.436-6.638c-2.506-1.161-5.479-0.069-6.638,2.436l-3.276,7.075l-4.864-12.961
	c-0.97-2.585-3.852-3.895-6.438-2.924c-2.585,0.97-3.895,3.853-2.924,6.438l4.146,11.046h-9.448
	c-1.353-10.379-8.054-22.33-8.732-23.516L67.668,7.731z M80.201,111.821c0,5.398,4.387,9.785,9.779,9.785h4.952v-19.564H89.98
	C84.588,102.042,80.201,106.429,80.201,111.821z M104.932,151.171h4.949c5.394,0,9.782-4.389,9.782-9.783s-4.388-9.782-9.782-9.782
	h-4.949V151.171z M170.49,140.626c0,35.986-27.695,59.238-70.558,59.238s-70.558-23.252-70.558-59.238
	c0-27.145,16.112-68.644,42.142-88.358c0.062-0.047,0.125-0.092,0.189-0.136c1.31-0.908,3.188-2.491,4.903-4.357H89.51l-2.838,6.128
	c-1.161,2.506-0.07,5.478,2.436,6.638c0.68,0.315,1.395,0.464,2.098,0.464c1.888,0,3.695-1.074,4.541-2.9l4.043-8.731l4.864,12.961
	c0.753,2.007,2.658,3.245,4.682,3.245c0.583,0,1.177-0.103,1.756-0.32c2.585-0.97,3.895-3.853,2.924-6.438l-4.146-11.047h12.465
	c0.641,0.63,1.316,1.205,1.999,1.694C151.949,67.175,170.49,110.868,170.49,140.626z M104.932,121.606v-19.564h19.731
	c2.761,0,5-2.239,5-5s-2.239-5-5-5h-19.731v-3.601c0-2.761-2.239-5-5-5s-5,2.239-5,5v3.601H89.98
	c-10.906,0-19.779,8.873-19.779,19.785c0,10.906,8.873,19.779,19.779,19.779h4.952v19.565H75.201c-2.761,0-5,2.239-5,5s2.239,5,5,5
	h19.731v5.197c0,2.761,2.239,5,5,5s5-2.239,5-5v-5.197h4.949c10.908,0,19.782-8.875,19.782-19.783
	c0-10.908-8.874-19.782-19.782-19.782H104.932z"/>
</svg>